<svg id="Layer_1" data-name="Layer 1" xmlns="http://www.w3.org/2000/svg" viewBox="0 0 165.23 129.95"><defs><style>.cls-1{fill:#231f20;}</style></defs><path class="cls-1" d="M0,0H79.58V17.7h-57V44.25H70.88v15H22.54v48H0Z"/><path class="cls-1" d="M79.58,0h48c11.55,0,20.4,2.85,26,7.8,5.85,5.25,8.55,11.7,8.55,20.1,0,11-6.75,18-16.8,21.45v.45c11.85,3.45,19.95,13.35,19.95,26.55,0,10.05-3.15,17-9.45,22.35-6.15,5.4-15.6,8.55-27,8.55H79.58Zm45.3,43.2c9.45,0,15.9-4.5,15.9-12.9,0-7.95-5.85-12.6-15.45-12.6h-24V43.2ZM101.33,89.25h25c10.5,0,16.8-5.85,16.8-14.55,0-10.2-7.5-15.45-17.4-15.45H101.33Z"/><path class="cls-1" d="M0,118H5.15a4.12,4.12,0,0,1,3.06,1.1,3.73,3.73,0,0,1,1,2.67c0,2.22-1.46,3.71-3.92,3.71H2.46v4.24H0Zm2.46,5.54H4.92a1.67,1.67,0,0,0,1.9-1.75A1.64,1.64,0,0,0,5,120H2.46Z"/><path class="cls-1" d="M10.09,123.86c0-3.51,2.2-6.12,5.66-6.12s5.63,2.61,5.63,6.12S19.2,130,15.75,130,10.09,127.36,10.09,123.86Zm8.87,0c0-2.35-1.05-4.17-3.2-4.17s-3.24,1.82-3.24,4.17,1.1,4.14,3.24,4.14S19,126.18,19,123.86Z"/><path class="cls-1" d="M22.67,118h5.38c2.26,0,3.77,1.31,3.77,3.26a2.7,2.7,0,0,1-2.15,2.84v.05a2.32,2.32,0,0,1,1.79,2.36c.16,1.65.1,2.92.51,3.1v.11H29.69c-.3-.13-.33-1.44-.43-2.7A2,2,0,0,0,27,125H25.05v4.7H22.67Zm2.38,5.18h2.52c1.3,0,1.94-.67,1.94-1.6s-.61-1.66-1.87-1.66H25.05Z"/><path class="cls-1" d="M32.57,118H42v2H38.47v9.72H36.09V120H32.57Z"/><path class="cls-1" d="M43.19,118h8.39v2h-6v2.82h5.1v2h-5.1v4.85H43.19Z"/><path class="cls-1" d="M52.08,123.86c0-3.51,2.2-6.12,5.66-6.12s5.63,2.61,5.63,6.12S61.19,130,57.74,130,52.08,127.36,52.08,123.86Zm8.87,0c0-2.35-1.05-4.17-3.2-4.17s-3.24,1.82-3.24,4.17,1.1,4.14,3.24,4.14S61,126.18,61,123.86Z"/><path class="cls-1" d="M64.67,118H67v9.74h5.51v2H64.67Z"/><path class="cls-1" d="M73.84,118h2.38v11.72H73.84Z"/><path class="cls-1" d="M77.53,123.86c0-3.51,2.19-6.12,5.65-6.12s5.64,2.61,5.64,6.12S86.64,130,83.18,130,77.53,127.36,77.53,123.86Zm8.86,0c0-2.35-1-4.17-3.19-4.17S80,121.51,80,123.86,81.05,128,83.2,128,86.39,126.18,86.39,123.86Z"/><path class="cls-1" d="M90.11,118h8.62v2H92.48v2.63H98v2H92.48v3.16h6.3v2H90.11Z"/><path class="cls-1" d="M100.25,118h2.38v4.67l4.5-4.67h3l-4.59,4.69,4.89,7h-2.79l-3.77-5.47-1.19,1.21v4.26h-2.38Z"/><path class="cls-1" d="M110.19,126.07h2.33c.17,1.41,1,2,2.64,2,1.21,0,2.28-.43,2.28-1.51s-1.12-1.38-2.9-1.79c-2.1-.47-4-1-4-3.47s1.89-3.51,4.49-3.51,4.35,1.29,4.53,3.65h-2.28a2,2,0,0,0-2.26-1.77c-1.28,0-2.12.55-2.12,1.38s.82,1.23,2.56,1.61c2.41.52,4.37,1.1,4.37,3.62s-1.91,3.7-4.55,3.7C112.08,130,110.28,128.54,110.19,126.07Z"/><path class="cls-1" d="M124.3,118h2.46l4.13,11.72h-2.47l-.79-2.49H123.4l-.77,2.49h-2.41Zm-.34,7.41h3.1L126,122c-.2-.63-.48-1.81-.48-1.81h0s-.3,1.18-.49,1.81Z"/><path class="cls-1" d="M131.87,118h3.34l1.66,5.89c.41,1.47.74,3.16.74,3.16h0s.31-1.69.72-3.16L140,118h3.39v11.72h-2.22V123c0-1,.1-2.42.1-2.42h0s-.26,1.37-.51,2.22l-2,6.92h-2.28l-2-6.92c-.24-.85-.51-2.22-.51-2.22h0s.1,1.47.1,2.42v6.72h-2.18Z"/><path class="cls-1" d="M145.21,118h8.62v2h-6.25v2.63h5.48v2h-5.48v3.16h6.3v2h-8.67Z"/><path class="cls-1" d="M155.35,118h2.41l3.9,6.54c.37.64.82,1.64.82,1.64h0s-.07-1.21-.07-2V118h2.35v11.72h-2.3l-4-6.47c-.37-.62-.83-1.62-.83-1.62h0s.06,1.22.06,2v6h-2.34Z"/></svg>