<svg id="Layer_1" data-name="Layer 1" xmlns="http://www.w3.org/2000/svg" viewBox="0 0 165.23 107.25"><defs><style>.cls-1{fill:#231f20;}</style></defs><path class="cls-1" d="M0,0H79.58V17.7h-57V44.25H70.88v15H22.54v48H0Z"/><path class="cls-1" d="M79.58,0h48c11.55,0,20.4,2.85,26,7.8,5.85,5.25,8.55,11.7,8.55,20.1,0,11-6.75,18-16.8,21.45v.45c11.85,3.45,19.95,13.35,19.95,26.55,0,10.05-3.15,17-9.45,22.35-6.15,5.4-15.6,8.55-27,8.55H79.58Zm45.3,43.2c9.45,0,15.9-4.5,15.9-12.9,0-7.95-5.85-12.6-15.45-12.6h-24V43.2ZM101.33,89.25h25c10.5,0,16.8-5.85,16.8-14.55,0-10.2-7.5-15.45-17.4-15.45H101.33Z"/></svg>