<svg id="Layer_1" data-name="Layer 1" xmlns="http://www.w3.org/2000/svg" width="1920" height="1080" viewBox="0 0 1920 1080"><defs><style>.cls-1{fill:#4799d6;stroke:#000;stroke-miterlimit:10;}.cls-2{fill:#72c5db;}.cls-3{fill:#d4eaf4;}.cls-4{fill:#869da8;}.cls-5{fill:#a7c0c9;}.cls-6{fill:#dcdce0;}.cls-7{opacity:0.35;}.cls-8{fill:#3d778e;}.cls-9{fill:#b1cddd;}.cls-10{fill:none;}.cls-11{fill:#a0a8aa;}.cls-12{fill:#196168;}.cls-13{fill:#fff;}.cls-14{fill:#ff0a11;}.cls-15{fill:#c5ffff;}.cls-16{fill:#d3d3d3;}.cls-17{fill:#f0fcbe;}.cls-18{fill:#fa0;}.cls-19{fill:#bababa;}.cls-20{fill:#5b9cfc;}.cls-21{fill:#5189af;}.cls-22{fill:#deb4ff;}.cls-23{fill:#b89dd1;}.cls-24{fill:#b80000;}.cls-25{fill:#fbb03b;}.cls-26{fill:#8c6239;}.cls-27{fill:#1d1d1b;}</style></defs><rect class="cls-1" x="2.01" y="541.5" width="1920.94" height="492"/><path class="cls-2" d="M1901.22,784.68a383.08,383.08,0,0,0-121.36,2.08c-2.14-13.31-27.67-22.18-51.81-23.28s-47.84,3.29-71.71,5.56c-103.44,9.82-208.47-20.29-312.46-12.45-53.56,4-105.64,18.07-159.22,14.14,4.13-11.41,19.73-21.34,39.62-25.21-98.35-18.42-207.52-18.79-306.26-1-36,6.47-70.53,15.26-106.89,21.06-75.19,12-157.19,10.59-230.88-3.94-43.86-8.65-85-21.83-130.69-26.91-45-5-91.62-1.82-136.67,3A1727.62,1727.62,0,0,0,85,777.41c98.75-26.32,210.48-37.65,319.76-32.42,41.82,2,85.88,7.08,116.06,23.18a4984.35,4984.35,0,0,0-538,26.25l1.83,34.51H437.76l310.62-14.2,242.25-11.68,602,4.38Z"/><polygon class="cls-3" points="1746.67 348.94 1745.92 421.76 1745.84 429.74 1745.75 438.7 1743.32 439.07 1741.16 439.4 1725.32 441.83 1723.31 442.14 1667.47 450.71 1665.49 451.01 1653.44 452.86 1651.21 453.2 1602.5 460.68 1600.49 460.99 1587.77 462.94 1585.61 463.27 1561.48 466.97 1559.49 467.28 1550.86 468.6 1547.6 469.1 1534.56 471.1 1359.5 497.96 1142.43 502.43 1105.33 478.93 1092.19 470.6 1089.03 468.6 1071.37 457.41 1068.66 455.69 1061.03 450.86 1059.26 449.74 1020.14 424.96 1017.64 423.37 1007.28 416.81 1005.54 415.71 999.63 411.96 966.98 391.28 965.21 390.16 929.4 367.47 926.69 365.76 904.45 351.67 902.72 350.57 892.27 343.95 891.69 343.51 894.52 341.44 909.73 330.31 912.57 328.24 913.47 327.58 915.16 326.35 1080.42 205.46 1265.99 69.74 1344.77 12.11 1432.52 85.65 1432.9 85.97 1615.78 239.25 1620.38 243.1 1746.67 348.94"/><polygon class="cls-4" points="1344.54 28.17 1334.02 65.92 1310.94 148.75 1286.99 137.22 1276.01 131.94 1265.45 145.34 1241.65 175.56 1239.23 178.63 1216.1 208 1219.4 144.01 1115.78 260.97 1099.12 231.28 1091.07 216.93 1115.04 180.97 1300.61 45.24 1344.54 28.17"/><polygon class="cls-4" points="1621.91 246.6 1612.26 245.63 1535.43 241.66 1471.11 229.5 1466.9 186.51 1415.08 165.13 1412.12 122.13 1353.22 78.67 1346.31 15.62 1434.05 89.15 1434.43 89.47 1621.91 246.6"/><polygon class="cls-5" points="1154.1 172.72 1126.14 184.11 1119.01 197.76 1112.02 209.03 1114.05 219.4 1117.4 228.86 1126.58 225.18 1125.45 214 1125.44 197.75 1137.38 198.37 1147.73 180.09 1153.82 178.05 1154.1 172.72"/><polygon class="cls-5" points="1255.97 89.61 1233.89 109.61 1232.62 134.28 1285.85 121.97 1271.38 108.32 1251.46 114.28 1255.97 89.61"/><polygon class="cls-5" points="1347.76 184.45 1331.54 209.42 1289.56 216.27 1263.37 249.44 1254.9 289.06 1283.07 256.38 1303.34 264.02 1316.19 235.51 1339.97 217.17 1349.96 254.99 1354.01 232.76 1365.25 263.85 1378.14 222.04 1347.76 184.45"/><polygon class="cls-4" points="1357.98 116.19 1379.66 139.43 1378.45 162.75 1395.59 135.95 1357.98 116.19"/><path class="cls-6" d="M1.51,999.67c95.07-19.42,204.09-.07,308,1.88,73.28,1.37,147.92-6.09,219.34,1.57,27.17,2.91,53.3,8,81,9.55,64.22,3.65,126.52-11.79,191.17-12.94,70.42-1.24,138.6,14.52,209,12.61,60.94-1.65,118.62-16.5,179.56-14.88,29.75.79,58.25,5.48,87.22,8.7,95.37,10.6,195.19,5.17,292.82.74,12.11-.55,25-1,35.79,1.59,5.87,1.41,10.6,3.64,15.8,5.53,41,14.9,100.86,6.84,148.69-2.84s103.53-20.39,149.81-9.22l3,78L1.51,1078.33Z"/><g class="cls-7"><path d="M1443.74,292.63c.77,8.1,6.16,14.33,12.92,18.4,7.64,4.59,16.21,6.09,24.91,7.24,9.53,1.26,19.56,2.34,27.75,7.81,4.31,2.88,7.92,6.66,12,9.81a60.2,60.2,0,0,0,12.35,7.24c10.18,4.5,21.13,6.7,32,8.82,1.88.36,2.69-2.53.8-2.9-9.38-1.82-18.83-3.69-27.78-7.08a64.84,64.84,0,0,1-12.64-6.37c-4.16-2.75-7.7-6.25-11.56-9.37a40.89,40.89,0,0,0-12.42-7,74.18,74.18,0,0,0-13.82-3.06c-8.62-1.24-17.52-1.81-25.59-5.4-7.56-3.36-15.1-9.32-15.94-18.14-.18-1.9-3.19-1.92-3,0Z"/></g><path class="cls-2" d="M1.89,619.52a613.81,613.81,0,0,1,121.35,1.3c2.14-8.27,27.67-13.79,51.81-14.47s47.84,2,71.71,3.45c103.44,6.11,208.47-12.61,312.47-7.74,53.55,2.51,105.64,11.23,159.21,8.79-4.12-7.09-19.73-13.26-39.61-15.66,98.34-11.45,207.51-11.68,306.25-.63,36,4,70.54,9.49,106.9,13.09,75.18,7.45,157.18,6.58,230.88-2.45,43.85-5.38,85-13.57,130.68-16.72,45-3.11,91.62-1.13,136.68,1.87,78.37,5.22,155,13.51,227.92,24.66-98.76-16.36-210.49-23.4-319.76-20.15-41.83,1.24-85.88,4.4-116.07,14.4,180.32-.57,360.79,4.9,538,16.32L1918.5,647H1465.34l-310.62-8.83-242.25-7.25-602,2.72Z"/><polygon class="cls-8" points="1928.45 498.6 1279.5 511.96 1062.43 516.43 1034.55 517 1025.33 492.93 1022.14 484.6 1021.38 482.6 1004.1 437.47 1042.16 415.63 1043.95 414.6 1063.27 403.52 1065.91 402 1089.8 388.29 1091.57 387.27 1150.71 353.34 1158.95 348.61 1161.4 347.2 1175.59 339.06 1189.48 331.42 1191.77 330.17 1192.77 329.62 1193.57 329.18 1218.55 315.45 1224.98 311.92 1249.59 298.39 1251.4 298.14 1262.49 296.63 1274.89 294.94 1288.56 293.08 1304.39 290.92 1315.3 289.43 1353.12 284.28 1354.58 284.08 1358.21 283.58 1371.61 281.75 1385.63 279.84 1387.11 279.64 1421.77 274.92 1421.85 274.9 1445.26 271.71 1449.05 271.2 1461.72 269.47 1473.47 266.9 1511.54 258.56 1533.69 253.71 1535.78 253.25 1741.06 208.29 1923.59 194.63 1928.21 483.8 1928.22 483.93 1928.45 498.6"/><polygon class="cls-9" points="1167.52 540.59 169.63 540.43 164.13 540.43 113.99 540.64 109.67 540.66 105.32 540.68 81.29 540.78 48.63 540.91 20.88 541.03 -0.3 483.53 -21.54 541.21 -84.61 541.47 170.33 218.93 351.4 48.1 679.73 233.09 863.66 336.72 1167.52 540.59"/><polygon class="cls-5" points="1002.95 428.43 868.5 448.93 801.95 400.43 725.95 380.43 695.95 321.43 641 286.43 567.95 286.43 611.4 207.6 1002.95 428.43"/><polygon class="cls-5" points="169.33 219.93 233.64 276.93 259.18 179.93 306.95 150.43 306.95 127.93 345.95 52.93 169.33 219.93"/><polygon class="cls-10" points="354.65 185.65 322.57 208.73 286.22 243.52 298.92 294.33 302.7 252.1 376.02 271.88 348.39 223.97 405.47 239.37 379.34 172.38 354.65 185.65"/><polygon class="cls-4" points="751.9 323.43 762.7 365.43 860.79 394.61 821.45 338.93 794.25 323.43 751.9 323.43"/><polygon class="cls-4" points="294.4 119.87 191.95 211.93 212.74 220.61 234.64 198.32 243.18 179.54 286.22 150.81 294.4 119.87"/><polygon class="cls-8" points="1902.48 106.49 1893.84 208.44 1926.41 205.97 1902.48 106.49"/><polygon class="cls-8" points="1876.08 128.55 1865.92 210.56 1898.49 208.09 1876.08 128.55"/><polygon class="cls-8" points="1843.89 100.91 1829.97 213.29 1874.61 209.9 1843.89 100.91"/><polygon class="cls-8" points="1774.09 106.21 1760.17 218.59 1804.81 215.2 1774.09 106.21"/><polygon class="cls-8" points="1814.09 144.29 1797.07 215.78 1841.71 212.4 1814.09 144.29"/><polygon class="cls-8" points="1743.88 130.01 1735.24 231.95 1767.82 229.48 1743.88 130.01"/><polygon class="cls-8" points="1717.48 152.07 1707.32 234.07 1739.9 231.6 1717.48 152.07"/><polygon class="cls-8" points="1685.29 124.43 1671.38 236.8 1716.01 233.41 1685.29 124.43"/><polygon class="cls-8" points="1615.49 129.72 1601.58 242.1 1646.21 238.71 1615.49 129.72"/><polygon class="cls-8" points="1655.49 167.81 1638.47 239.3 1683.11 235.91 1655.49 167.81"/><polygon class="cls-8" points="1620.28 155.43 1611.63 257.37 1644.21 254.9 1620.28 155.43"/><polygon class="cls-8" points="1593.87 177.49 1583.71 259.49 1616.29 257.02 1593.87 177.49"/><polygon class="cls-8" points="1561.69 149.84 1547.77 262.22 1592.41 258.83 1561.69 149.84"/><polygon class="cls-8" points="1491.89 155.14 1477.97 267.52 1522.61 264.13 1491.89 155.14"/><polygon class="cls-8" points="1531.88 193.23 1514.86 264.72 1559.5 261.33 1531.88 193.23"/><polygon class="cls-8" points="1454.68 199.94 1446.04 301.89 1478.61 299.42 1454.68 199.94"/><polygon class="cls-8" points="1428.27 222 1418.12 304.01 1450.69 301.54 1428.27 222"/><polygon class="cls-8" points="1396.09 194.36 1382.17 306.74 1426.81 303.35 1396.09 194.36"/><polygon class="cls-8" points="1326.29 199.66 1312.37 312.04 1357.01 308.65 1326.29 199.66"/><polygon class="cls-8" points="1366.29 237.74 1349.27 309.23 1393.9 305.85 1366.29 237.74"/><polygon class="cls-8" points="1291.82 250.83 1283.18 352.77 1315.76 350.3 1291.82 250.83"/><polygon class="cls-8" points="1265.42 272.89 1255.26 354.89 1287.84 352.42 1265.42 272.89"/><polygon class="cls-8" points="1233.23 245.25 1219.32 357.62 1263.95 354.24 1233.23 245.25"/><polygon class="cls-8" points="1163.43 250.55 1149.52 362.92 1194.15 359.53 1163.43 250.55"/><polygon class="cls-8" points="1203.43 288.63 1186.41 360.12 1231.05 356.73 1203.43 288.63"/><polygon class="cls-11" points="1059.38 339.53 1008.22 478.43 1110.54 478.43 1059.38 339.53"/><polygon class="cls-11" points="982.08 295.4 930.91 478.43 1033.24 478.43 982.08 295.4"/><polygon class="cls-11" points="917.23 321 866.07 459.9 968.4 459.9 917.23 321"/><polygon class="cls-11" points="855.9 244.43 769.71 478.43 942.09 478.43 855.9 244.43"/><polygon class="cls-11" points="743.29 339.53 692.13 478.43 794.45 478.43 743.29 339.53"/><polygon class="cls-11" points="665.99 295.4 614.82 478.43 717.15 478.43 665.99 295.4"/><polygon class="cls-11" points="601.14 321 549.98 459.9 652.31 459.9 601.14 321"/><polygon class="cls-11" points="539.81 244.43 453.62 478.43 626 478.43 539.81 244.43"/><path class="cls-11" d="M40.17,478.43H-44.55l1.11-17.14h0l1.34-20.78a238.36,238.36,0,0,1,23.24-10.14l12.15-33.58-32.66.13L-11,295.4,6.86,359.28l10.46,37.4L21.05,410l2.35,8.4L35,459.9l4.9,17.53Z"/><polygon class="cls-11" points="53.85 321 105.02 459.9 2.69 459.9 53.85 321"/><polygon class="cls-11" points="115.19 244.43 201.38 478.43 28.99 478.43 115.19 244.43"/><polygon class="cls-11" points="227.79 339.53 278.96 478.43 176.63 478.43 227.79 339.53"/><polygon class="cls-11" points="305.1 295.4 356.26 478.43 253.94 478.43 305.1 295.4"/><polygon class="cls-11" points="369.94 321 421.11 459.9 318.78 459.9 369.94 321"/><polygon class="cls-11" points="423.02 244.43 509.21 478.43 336.83 478.43 423.02 244.43"/><polygon class="cls-12" points="1954.61 395.53 1909.43 515.43 1999.79 515.43 1954.61 395.53"/><polygon class="cls-12" points="1886.34 357.43 1841.16 515.43 1931.53 515.43 1886.34 357.43"/><polygon class="cls-12" points="1829.08 379.53 1783.9 499.43 1874.27 499.43 1829.08 379.53"/><polygon class="cls-12" points="1774.92 313.43 1698.81 515.43 1851.04 515.43 1774.92 313.43"/><polygon class="cls-12" points="1675.48 395.53 1630.3 515.43 1720.66 515.43 1675.48 395.53"/><polygon class="cls-12" points="1607.21 357.43 1562.03 515.43 1652.39 515.43 1607.21 357.43"/><polygon class="cls-12" points="1549.95 379.53 1504.77 499.43 1595.13 499.43 1549.95 379.53"/><polygon class="cls-12" points="1495.79 313.43 1419.67 515.43 1571.9 515.43 1495.79 313.43"/><polygon class="cls-12" points="1066.65 379.53 1111.83 499.43 1021.47 499.43 1066.65 379.53"/><polygon class="cls-12" points="1120.81 313.43 1196.93 515.43 1044.7 515.43 1120.81 313.43"/><polygon class="cls-12" points="1220.26 395.53 1265.44 515.43 1175.07 515.43 1220.26 395.53"/><polygon class="cls-12" points="1288.52 357.43 1333.7 515.43 1243.34 515.43 1288.52 357.43"/><polygon class="cls-12" points="1345.78 379.53 1390.96 499.43 1300.6 499.43 1345.78 379.53"/><polygon class="cls-12" points="1392.66 313.43 1468.77 515.43 1316.54 515.43 1392.66 313.43"/><polygon class="cls-12" points="1041.12 395.53 995.94 515.43 1086.3 515.43 1041.12 395.53"/><polygon class="cls-12" points="972.86 357.43 927.67 515.43 1018.04 515.43 972.86 357.43"/><polygon class="cls-12" points="915.6 379.53 870.41 499.43 960.78 499.43 915.6 379.53"/><polygon class="cls-12" points="861.43 313.43 785.32 515.43 937.55 515.43 861.43 313.43"/><polygon class="cls-12" points="761.99 395.53 716.81 515.43 807.17 515.43 761.99 395.53"/><polygon class="cls-12" points="693.72 357.43 648.54 515.43 738.9 515.43 693.72 357.43"/><polygon class="cls-12" points="636.46 379.53 591.28 499.43 681.64 499.43 636.46 379.53"/><polygon class="cls-12" points="582.3 313.43 506.19 515.43 658.41 515.43 582.3 313.43"/><polygon class="cls-12" points="72.82 515.43 -17.55 515.43 0.19 468.36 12.84 434.78 26.97 397.28 27.64 395.52 42.39 434.66 44.6 440.57 50.17 455.35 66.22 497.9 72.82 515.43"/><polygon class="cls-12" points="95.9 357.43 141.08 515.43 50.72 515.43 95.9 357.43"/><polygon class="cls-12" points="153.16 379.53 198.34 499.43 107.98 499.43 153.16 379.53"/><polygon class="cls-12" points="207.32 313.43 283.44 515.43 131.21 515.43 207.32 313.43"/><polygon class="cls-12" points="306.77 395.53 351.95 515.43 261.58 515.43 306.77 395.53"/><polygon class="cls-12" points="375.03 357.43 420.21 515.43 329.85 515.43 375.03 357.43"/><polygon class="cls-12" points="432.29 379.53 477.48 499.43 387.11 499.43 432.29 379.53"/><polygon class="cls-12" points="479.17 313.43 555.28 515.43 403.05 515.43 479.17 313.43"/><path class="cls-13" d="M1935.5,479.3l-1.67,59.13H-1.66l1.11-17.14h0L.79,500.5A238.36,238.36,0,0,1,24,490.36,262.24,262.24,0,0,1,60.4,479.67q2.94-.66,5.89-1.23T72,477.35a378.63,378.63,0,0,1,58.17-5.49C195.72,470.36,264.15,482,330,486a800.4,800.4,0,0,0,170.75-8c36.9-5.72,77.15-13.48,109.65,4.77,11.63,6.53,21.56,16.13,34.07,20.82,15.2,5.69,32.13,3.39,48.09.38,83.88-15.79,168.42-49,252-31.76,25.05,5.17,49,14.79,74.21,19.28,60.77,10.82,122.56-8.9,184.27-10.35,93.21-2.18,187.77,37.2,277.69,12.8,26.78-7.27,52.29-20.09,79.94-22.55,34.62-3.08,68.29,10.34,102.52,16.37a244,244,0,0,0,118.69-8.7C1832.63,492.25,1883.85,492.09,1935.5,479.3Z"/><path class="cls-2" d="M273,919.51a811.21,811.21,0,0,0,104.41-.73c1.84,4.63,23.81,7.71,44.58,8.09s41.15-1.14,61.69-1.93c89-3.41,179.36,7,268.84,4.32,46.07-1.4,90.88-6.27,137-4.91-3.55,4-17,7.41-34.09,8.76a1843.37,1843.37,0,0,0,263.49.35c31-2.25,60.69-5.3,92-7.32a1428.52,1428.52,0,0,1,198.64,1.37c37.73,3,73.15,7.58,112.43,9.35,38.71,1.74,78.83.63,117.59-1.05,67.43-2.91,133.36-7.55,196.09-13.78-85,9.14-181.09,13.08-275.1,11.26-36-.69-73.89-2.46-99.86-8,155.14.32,310.41-2.74,462.88-9.12l-1.57-12H1532.07l-267.25,4.93-208.42,4-517.91-1.51Z"/><path class="cls-14" d="M103.83,130.77,63.23,90.18c-33.77-33.77,6.83-74.37,40.6-40.6,35.44-35.45,76,5.15,40.59,40.6Z"/><path class="cls-14" d="M238.83,130.77l-40.6-40.59c-33.77-33.77,6.83-74.37,40.6-40.6,35.44-35.45,76,5.15,40.59,40.6Z"/><path class="cls-14" d="M377.83,130.77l-40.6-40.59c-33.77-33.77,6.83-74.37,40.6-40.6,35.44-35.45,76,5.15,40.59,40.6Z"/><polygon points="131.22 823.57 43.28 864.86 16.47 918.41 57.74 958.44 151.53 964.78 169.2 851.39 131.22 823.57"/><polygon class="cls-15" points="130.82 827 44.65 867.14 18.05 918.49 58.01 956.38 149.51 961.68 167.67 853.26 130.82 827"/><polygon points="133.86 826.01 50.01 865.06 24.12 915.03 63 951.9 152.04 957.05 169.71 851.56 133.86 826.01"/><polygon class="cls-15" points="133.46 829.2 51.29 867.17 25.62 915.09 63.27 949.98 150.14 954.18 168.25 853.31 133.46 829.2"/><polygon points="58.78 957.57 63.61 951.93 62.17 950.6 57.34 956.23 58.78 957.57"/><polygon class="cls-15" points="135.7 834.74 53.45 872.75 49.44 863.84 131.68 825.83 135.7 834.74"/><polygon class="cls-15" points="166.12 856.66 129.18 829.6 131.74 825.78 168.67 852.84 166.12 856.66"/><polygon class="cls-15" points="52.75 866.2 26.52 915.16 23.16 913.17 49.4 864.2 52.75 866.2"/><path class="cls-15" d="M25.94,914.64a2.67,2.67,0,0,0-1.24-1.06l-.13.4a4.38,4.38,0,0,0,1.08.14.21.21,0,0,0,.19-.22.22.22,0,0,0-.22-.2,4.22,4.22,0,0,0-1.45.22l.18.38a1.33,1.33,0,0,1,.75-.26l-.08-.41-.37.11.18.38h0l.06,0,.13.13a1.8,1.8,0,0,0,.35.21,2.59,2.59,0,0,1,.33.17s0,0,0,0,.06.06,0,0l0,.07,0,0,.28-.25a4.08,4.08,0,0,1-.7-.47.21.21,0,0,0-.27.31l1,.89c.2.18.47-.13.27-.31l-1-.89-.27.31a4.6,4.6,0,0,0,.79.54.21.21,0,0,0,.29-.26,1.18,1.18,0,0,0-.71-.62,1.09,1.09,0,0,1-.33-.23c-.16-.15-.35-.25-.54-.13s0,.44.19.38l.36-.12c.21-.07.15-.45-.08-.41a1.8,1.8,0,0,0-.95.32.22.22,0,0,0-.06.27.21.21,0,0,0,.25.11,4,4,0,0,1,1.34-.2l0-.42a4,4,0,0,1-1-.14c-.22-.06-.35.31-.13.4a2.27,2.27,0,0,1,1.09.92c.14.23.48,0,.33-.24Z"/><polygon points="25.32 914.39 24.4 915.47 20.55 911.94 21.46 910.86 25.32 914.39"/><polygon class="cls-15" points="26.52 913.7 25.55 914.84 21.69 911.31 22.66 910.17 26.52 913.7"/><polygon points="131.51 872.5 111 857.47 62.87 929.45 83.39 944.48 131.51 872.5"/><path d="M146.7,870.1c-6.95,10.39-21.2,12.5-31.84,4.7s-13.63-22.53-6.68-32.92c.35-.52.72-1,1.1-1.51l38.4,28.13C147.38,869,147.05,869.58,146.7,870.1Z"/><ellipse cx="130.56" cy="851.57" rx="2.18" ry="24.87" transform="translate(-633.42 453.39) rotate(-53.76)"/><path d="M148.2,869.89,108.08,840.5a4,4,0,0,1,2.42-3.62l40.12,29.39A5.2,5.2,0,0,1,148.2,869.89Z"/><ellipse cx="103.1" cy="893.16" rx="3.77" ry="3.99" transform="translate(-438.21 175.28) rotate(-30.43)"/><polygon class="cls-16" points="131.03 872.25 111.2 857.72 63.57 928.96 83.4 943.49 131.03 872.25"/><ellipse class="cls-17" cx="130.32" cy="851.71" rx="2.15" ry="24.03" transform="matrix(0.59, -0.81, 0.81, 0.59, -633.62, 453.24)"/><ellipse cx="104.01" cy="890.33" rx="4.77" ry="5.48" transform="translate(-608.39 346.27) rotate(-45.97)"/><path d="M147.26,869.79l-39.45-28.9a4.87,4.87,0,0,1,2.7-4L150,865.76A6.49,6.49,0,0,1,147.26,869.79Z"/><path class="cls-16" d="M147.31,869.49l-38.77-28.4a4,4,0,0,1,2.4-3.59l38.77,28.41A5.24,5.24,0,0,1,147.31,869.49Z"/><path d="M145.76,870.34c-6.94,10.39-21,12.64-31.38,5s-13.17-22.19-6.23-32.58c.35-.52.73-1,1.11-1.51l37.48,27.46C146.44,869.28,146.11,869.82,145.76,870.34Z"/><path class="cls-16" d="M144.83,870.26c-6.72,10-20.32,12.23-30.37,4.87s-12.75-21.49-6-31.54c.34-.51.7-1,1.07-1.47l36.28,26.58C145.49,869.23,145.17,869.75,144.83,870.26Z"/><polygon points="109.6 886.13 116.24 887.98 113.53 892.03 109.6 886.13"/><polygon points="106.52 883.88 102.58 877.98 99.88 882.03 106.52 883.88"/><ellipse class="cls-13" cx="102.87" cy="880.99" rx="0.8" ry="0.83" transform="matrix(0.95, -0.32, 0.32, 0.95, -275.85, 78.93)"/><ellipse class="cls-13" cx="113.88" cy="889.06" rx="0.8" ry="0.83" transform="translate(-277.85 82.87) rotate(-18.62)"/><polygon points="106.58 881.3 103.2 876.24 103.64 875.94 107.01 881 106.58 881.3"/><polygon points="112.08 884.91 117.78 886.5 117.91 885.96 112.21 884.38 112.08 884.91"/><path class="cls-13" d="M108.42,893.56a3.31,3.31,0,0,1-.43.53,5.55,5.55,0,0,0-2.08-6.6,5,5,0,0,0-6.64.22,3.51,3.51,0,0,1,.33-.6c1.47-2.2,4.63-2.54,7.07-.75S109.89,891.36,108.42,893.56Z"/><path class="cls-13" d="M107.7,894.52A2.19,2.19,0,0,0,108,894c-1.32,1.3-3.92,1.13-6.14-.49s-3.25-4.13-2.54-5.87a2.8,2.8,0,0,0-.35.41c-1.16,1.74-.13,4.58,2.29,6.35S106.54,896.25,107.7,894.52Z"/><polygon points="385.96 562.32 268.42 575.11 216.65 623.91 248.72 683.03 354.5 724.61 418.98 606.84 385.96 562.32"/><polygon class="cls-15" points="384.17 565.94 269.11 578.12 218.44 624.58 249.83 680.87 353.38 720.46 416.49 608.33 384.17 565.94"/><polygon points="388.06 565.97 276.1 577.82 226.79 623.03 257.33 677.8 358.1 716.32 419.51 607.21 388.06 565.97"/><polygon class="cls-15" points="386.35 569.32 276.76 580.6 228.5 623.65 258.4 675.8 357.02 712.48 417.14 608.59 386.35 569.32"/><polygon points="250.26 682.45 258.03 678.05 256.89 676.06 249.12 680.46 250.26 682.45"/><polygon class="cls-15" points="386.79 576.22 277.09 587.51 275.92 576.26 385.62 564.97 386.79 576.22"/><polygon class="cls-15" points="413.38 611.48 381.26 568.18 385.7 564.94 417.81 608.24 413.38 611.48"/><polygon class="cls-15" points="278.83 580.07 229.51 624.06 226.41 620.63 275.73 576.65 278.83 580.07"/><path class="cls-15" d="M229,623.3a3,3,0,0,0-1-1.6l-.22.28a5.2,5.2,0,0,0,1.17.55c.22.07.31-.27.09-.34a5.38,5.38,0,0,0-1.74-.29l.05.35a1.79,1.79,0,0,1,1,0l0-.35h-.46l0,.35s0,0,0,0l.06.08.11.19a2.52,2.52,0,0,0,.3.35c.18.16.43.35.43.62l.3-.13a5.39,5.39,0,0,1-.64-.79.18.18,0,0,0-.31.18l.79,1.33a.18.18,0,0,0,.31-.17l-.79-1.34-.31.18a5.84,5.84,0,0,0,.7.86.17.17,0,0,0,.3-.12,1.23,1.23,0,0,0-.54-.89,1.35,1.35,0,0,1-.31-.4c-.11-.19-.25-.37-.49-.31s-.15.34,0,.35h.46c.2,0,.25-.31,0-.34a2.25,2.25,0,0,0-1.18,0c-.18.07-.17.35,0,.35a5.1,5.1,0,0,1,1.65.28l.09-.34a5.33,5.33,0,0,1-1.08-.51c-.17-.11-.37.14-.22.27a2.72,2.72,0,0,1,.92,1.44.18.18,0,0,0,.34-.09Z"/><polygon points="228.43 622.77 226.95 623.62 223.87 618.32 225.35 617.47 228.43 622.77"/><polygon class="cls-15" points="230.08 622.46 228.51 623.35 225.44 618.05 227 617.16 230.08 622.46"/><ellipse class="cls-18" cx="323.32" cy="631.35" rx="26.93" ry="29.91" transform="translate(-338.96 885.35) rotate(-83.86)"/><polygon class="cls-18" points="349.94 661.56 290.51 654.78 293.32 630.46 352.75 637.24 349.94 661.56"/><ellipse class="cls-18" cx="320.24" cy="658.03" rx="8.01" ry="29.91" transform="translate(-369.82 901.69) rotate(-83.5)"/><path d="M349.94,661.5c-.5,4.4-14.22,6.44-30.63,4.57s-29.31-7-28.8-11.35a2.22,2.22,0,0,1,.14-.55c.59,4.26,13.08,9,28.79,10.78s28.95,0,30.49-4A1.76,1.76,0,0,1,349.94,661.5Z"/><path d="M351.14,651.79c-.5,4.4-14.22,6.44-30.63,4.57s-29.31-7-28.8-11.35a2.22,2.22,0,0,1,.14-.55c.59,4.26,13,8.85,28.73,10.64s29,.14,30.55-3.87A2.11,2.11,0,0,1,351.14,651.79Z"/><ellipse cx="323.37" cy="631.62" rx="0.89" ry="1.64" transform="translate(-340.68 881.72) rotate(-83.53)"/><ellipse cx="306.29" cy="629" rx="4.16" ry="3" transform="translate(-354.11 859.91) rotate(-83.31)"/><ellipse cx="340.51" cy="633.12" rx="4.16" ry="3" transform="translate(-327.97 897.53) rotate(-83.31)"/><ellipse class="cls-13" cx="340.62" cy="632.16" rx="0.85" ry="1.5" transform="translate(-325.89 899.4) rotate(-83.53)"/><ellipse class="cls-13" cx="306.38" cy="628.26" rx="0.85" ry="1.5" transform="translate(-352.39 861.92) rotate(-83.53)"/><path d="M330.25,640.26c-.18,1.55-3.82,2.4-8.14,1.91s-7.67-2.14-7.49-3.69a1.17,1.17,0,0,1,.29-.63c.66,1.33,3.66,2.61,7.35,3s6.9-.14,7.85-1.29A1.09,1.09,0,0,1,330.25,640.26Z"/><path d="M338.41,595.54l.13,1.84a.68.68,0,0,0,1.19.38l1.16-1.36A.67.67,0,0,1,342,597l-.62,1.88a.67.67,0,0,0,.93.81l1.66-.79a.67.67,0,0,1,.8,1l-1.39,1.58a.67.67,0,0,0,.51,1.11l2,0a.67.67,0,0,1,.29,1.28l-1.94.88a.66.66,0,0,0,0,1.21l1.89.89a.67.67,0,0,1-.29,1.27l-2,0a.67.67,0,0,0-.52,1.1l1.37,1.62a.67.67,0,0,1-.81,1l-1.71-.84a.67.67,0,0,0-.94.79l.58,2a.67.67,0,0,1-1.17.61L339.47,613a.67.67,0,0,0-1.19.35l-.2,1.89a.68.68,0,0,1-1.32.11l-.49-1.73a.67.67,0,0,0-1.24-.14l-.86,1.57a.67.67,0,0,1-1.26-.4l.23-1.89a.67.67,0,0,0-1.08-.61l-1.43,1.1a.67.67,0,0,1-1-.86l1-1.77a.67.67,0,0,0-.74-1l-1.85.43a.67.67,0,0,1-.56-1.19l1.71-1.27a.67.67,0,0,0-.26-1.19l-2-.43a.67.67,0,0,1,0-1.31l2.05-.44a.66.66,0,0,0,.27-1.18l-1.68-1.29a.67.67,0,0,1,.57-1.18l1.91.46a.68.68,0,0,0,.76-1l-1-1.85a.67.67,0,0,1,1-.83l1.44,1.15a.68.68,0,0,0,1.09-.59l-.18-2a.67.67,0,0,1,1.27-.37l.82,1.59a.67.67,0,0,0,1.24-.11l.55-1.76A.68.68,0,0,1,338.41,595.54Z"/><path d="M352.84,634.52a24.17,24.17,0,0,1-.43,2.57,25.63,25.63,0,0,1-2.59,6.94l.78-6.75h-.13c0-.13.06-.27.09-.4.13-.65.24-1.32.32-2,1.64-14.22-9.43-27.16-24.73-28.9s-29,8.36-30.68,22.58q-.12,1-.15,2c0,.13,0,.27,0,.41l-.12,0-.84,7.29a25.84,25.84,0,0,1-1.11-7.92,25.21,25.21,0,0,1,.17-2.59c1.76-15.25,16.49-26.09,32.91-24.22S354.6,619.27,352.84,634.52Z"/><path d="M292.46,655.56l.09-1.26a.14.14,0,0,0,0,.06h0a.71.71,0,0,1,0-.14,2.88,2.88,0,0,1,.09-.4q0-.59.12-1.17a1.8,1.8,0,0,1,.06-.22l-.07,0,2.49-21.5.12,0c0-.14,0-.28,0-.41l-2.21-.25-2.9,25.1,2.24.26S292.45,655.6,292.46,655.56Z"/><path d="M350.56,636.87c0,.13-.05.27-.09.4h.13l-2.47,21.37a15.52,15.52,0,0,1-.3,3.35l1.81.2,2.9-25.1Z"/><path d="M292.46,655.56l.09-1.26a.14.14,0,0,0,0,.06h0a.71.71,0,0,1,0-.14,2.88,2.88,0,0,1,.09-.4q0-.59.12-1.17a1.8,1.8,0,0,1,.06-.22l-.07,0c-1.48.79-2.35,1.74-2.47,2.81,0,.05,0,.1,0,.15v.14l0-.13,2.2.25S292.45,655.6,292.46,655.56Z"/><path d="M348.14,659a15.7,15.7,0,0,1-.31,3l1.77.2s0,.09,0,.14l0-.14c0-.05,0-.1,0-.14A3.81,3.81,0,0,0,348.14,659Z"/><path d="M290.3,655.28l0,.15h-.08Z"/><path d="M349.6,662.2h-.08a1.47,1.47,0,0,0,.06-.14C349.59,662.1,349.59,662.15,349.6,662.2Z"/><path d="M293.29,647.42l-.14,1.16c-1.21-1.09-1.82-2.18-1.7-3.24a2.37,2.37,0,0,1,.14-.57A4.55,4.55,0,0,0,293.29,647.42Z"/><path d="M350.87,651.54a4.34,4.34,0,0,1-2.17,2.13l-.13,1.18a4.54,4.54,0,0,0,2.17-2.15,2.24,2.24,0,0,0,.14-.58A1.89,1.89,0,0,0,350.87,651.54Z"/><polygon points="543.77 734.92 436.08 746.64 388.65 791.35 418.03 845.51 514.95 883.61 574.02 775.71 543.77 734.92"/><polygon class="cls-15" points="542.13 738.23 436.72 749.39 390.29 791.96 419.05 843.54 513.92 879.81 571.74 777.07 542.13 738.23"/><polygon points="545.7 738.26 443.12 749.12 397.94 790.54 425.93 840.72 518.24 876.01 574.51 776.05 545.7 738.26"/><polygon class="cls-15" points="544.13 741.34 443.72 751.67 399.51 791.11 426.9 838.89 517.26 872.49 572.34 777.31 544.13 741.34"/><polygon points="419.44 844.98 426.56 840.96 425.52 839.13 418.4 843.16 419.44 844.98"/><polygon class="cls-15" points="544.53 747.65 444.02 758 442.95 747.69 543.46 737.35 544.53 747.65"/><polygon class="cls-15" points="568.89 779.96 539.47 740.29 543.53 737.32 572.95 776.99 568.89 779.96"/><polygon class="cls-15" points="445.62 751.19 400.43 791.49 397.59 788.35 442.78 748.05 445.62 751.19"/><path class="cls-15" d="M400,790.78a2.76,2.76,0,0,0-.92-1.46l-.22.27a5.33,5.33,0,0,0,1.08.51c.21.07.3-.27.09-.34a4.8,4.8,0,0,0-1.6-.27l.05.34a1.62,1.62,0,0,1,.9,0l.05-.34H399l.05.34c-.05,0,0,0,0,0a.35.35,0,0,0,.05.08,1,1,0,0,0,.1.17,2.14,2.14,0,0,0,.28.32c.16.15.39.32.38.56l.3-.12a5,5,0,0,1-.58-.73.18.18,0,0,0-.31.18l.72,1.22a.18.18,0,0,0,.31-.17l-.72-1.23-.31.18a6.13,6.13,0,0,0,.64.79.17.17,0,0,0,.3-.12,1.13,1.13,0,0,0-.5-.82,1.21,1.21,0,0,1-.28-.36c-.1-.18-.24-.35-.46-.29a.17.17,0,0,0,0,.34h.43c.19,0,.25-.3.05-.34a2.12,2.12,0,0,0-1.09,0,.17.17,0,0,0,0,.34,4.57,4.57,0,0,1,1.51.26l.09-.34a4.08,4.08,0,0,1-1-.47c-.16-.1-.37.15-.21.28a2.47,2.47,0,0,1,.83,1.31c.06.22.39.12.34-.1Z"/><polygon points="399.44 790.3 398.09 791.08 395.27 786.23 396.62 785.45 399.44 790.3"/><polygon class="cls-15" points="400.95 790.02 399.52 790.84 396.7 785.98 398.13 785.16 400.95 790.02"/><ellipse class="cls-19" cx="451.7" cy="828.28" rx="2.35" ry="11.22" transform="translate(-471.88 635.7) rotate(-49.62)"/><polygon class="cls-19" points="508.75 779.31 491.67 764.77 443.27 820.88 460.36 835.42 508.75 779.31"/><ellipse class="cls-19" cx="469.88" cy="843.76" rx="2.35" ry="11.22" transform="translate(-477.27 655) rotate(-49.62)"/><polygon class="cls-19" points="526.94 794.79 509.86 780.25 461.46 836.36 478.54 850.89 526.94 794.79"/><path class="cls-19" d="M538.51,781.38l-13,15-35.27-30,13-15,1.82,1.55c-.63,4.92,3.74,12.63,11.26,19s15.84,9.51,20.64,8.13Z"/><ellipse class="cls-19" cx="520.87" cy="766.37" rx="7.59" ry="23.16" transform="translate(-400.41 667.05) rotate(-49.64)"/><ellipse class="cls-20" cx="452.44" cy="827.97" rx="2.35" ry="11.22" transform="translate(-471.38 636.16) rotate(-49.62)"/><polygon class="cls-20" points="509.5 779 492.42 764.46 444.02 820.56 461.1 835.1 509.5 779"/><ellipse class="cls-20" cx="470.63" cy="843.45" rx="2.35" ry="11.22" transform="translate(-476.77 655.46) rotate(-49.62)"/><polygon class="cls-20" points="527.69 794.48 510.6 779.94 462.2 836.04 479.29 850.58 527.69 794.48"/><path class="cls-20" d="M539.26,781.06l-13,15.06L491,766.1l13-15.05,1.82,1.55c-.64,4.92,3.74,12.62,11.25,19s15.85,9.51,20.65,8.13Z"/><ellipse class="cls-21" cx="521.39" cy="766.33" rx="7.59" ry="23.16" transform="translate(-400.2 667.42) rotate(-49.64)"/><path class="cls-19" d="M539,781.34c-2.74,3.17-12.85-1-22.59-9.26S501,754.5,503.75,751.32l.26-.26c-2.2,3.43,3.43,12.42,12.89,20.47s19.27,12.19,22.34,9.52A3.15,3.15,0,0,1,539,781.34Z"/><ellipse cx="515.33" cy="773.43" rx="0.66" ry="0.66"/><ellipse cx="505.64" cy="766.22" rx="5.16" ry="2.12" transform="translate(-404.66 647.38) rotate(-49.14)"/><ellipse cx="524.01" cy="782.2" rx="5.16" ry="2.12" transform="translate(-410.39 666.8) rotate(-49.14)"/><ellipse class="cls-13" cx="524.79" cy="781.3" rx="1.06" ry="1.05"/><ellipse class="cls-13" cx="506.24" cy="765.52" rx="1.06" ry="1.05"/><path d="M516.9,780.32c-.62.72-3-.31-5.36-2.3s-3.73-4.19-3.11-4.91a.67.67,0,0,1,.38-.2c-.06,1,1.25,2.8,3.25,4.5s4.05,2.71,5,2.51A.61.61,0,0,1,516.9,780.32Z"/><path class="cls-19" d="M504.18,750.84c2.74-3.18,13.59,1.59,22.59,9.26,9.74,8.29,14.79,18.31,12.68,20.75a2.13,2.13,0,0,1-.26.26c2.19-3.42-3.43-12.41-12.89-20.46S507,748.45,504,751.13A3.15,3.15,0,0,1,504.18,750.84Z"/><polygon points="1852.06 617.45 1731.36 630.58 1678.2 680.7 1711.13 741.4 1819.76 784.1 1885.96 663.16 1852.06 617.45"/><polygon class="cls-15" points="1850.22 621.16 1732.07 633.67 1680.05 681.38 1712.28 739.19 1818.6 779.84 1883.41 664.69 1850.22 621.16"/><polygon points="1854.22 621.2 1739.25 633.37 1688.62 679.79 1719.98 736.03 1823.45 775.58 1886.51 663.55 1854.22 621.2"/><polygon class="cls-15" points="1852.46 624.64 1739.93 636.23 1690.37 680.43 1721.07 733.98 1822.35 771.64 1884.07 664.97 1852.46 624.64"/><polygon points="1712.71 740.81 1720.69 736.29 1719.52 734.25 1711.54 738.76 1712.71 740.81"/><polygon class="cls-15" points="1852.91 631.72 1740.26 643.32 1739.06 631.77 1851.71 620.17 1852.91 631.72"/><polygon class="cls-15" points="1880.21 667.93 1847.24 623.47 1851.79 620.14 1884.76 664.6 1880.21 667.93"/><polygon class="cls-15" points="1742.05 635.68 1691.41 680.85 1688.23 677.33 1738.87 632.16 1742.05 635.68"/><path class="cls-15" d="M1690.86,680.07a3,3,0,0,0-1-1.63l-.21.27a5.18,5.18,0,0,0,1.19.56.17.17,0,0,0,.1-.33,5.47,5.47,0,0,0-1.79-.3l.05.34a1.86,1.86,0,0,1,1,0l0-.34h-.48l0,.34s0,0,0,0,0,.06,0,.09.07.13.12.2a2,2,0,0,0,.31.35c.18.17.44.36.44.64l.29-.12a5.71,5.71,0,0,1-.65-.82.18.18,0,0,0-.31.18l.81,1.37a.18.18,0,0,0,.3-.18l-.8-1.37-.31.18a6,6,0,0,0,.72.88.17.17,0,0,0,.3-.12c0-.4-.3-.66-.56-.91a1.52,1.52,0,0,1-.32-.4c-.11-.2-.26-.38-.5-.32s-.14.34,0,.34h.48c.19,0,.25-.31,0-.35a2.26,2.26,0,0,0-1.21,0,.17.17,0,0,0,0,.34,5.65,5.65,0,0,1,1.69.29l.1-.33a5,5,0,0,1-1.12-.53c-.16-.11-.37.14-.21.27a2.82,2.82,0,0,1,.94,1.48c0,.22.39.13.34-.09Z"/><polygon points="1690.3 679.52 1688.78 680.4 1685.62 674.96 1687.14 674.09 1690.3 679.52"/><polygon class="cls-15" points="1691.99 679.2 1690.39 680.12 1687.22 674.68 1688.83 673.76 1691.99 679.2"/><polygon points="1830.59 671.37 1815.26 722.22 1741.53 700.29 1756.86 649.44 1830.59 671.37"/><polygon points="1829.31 652.37 1763.4 668.55 1756.99 649.31 1822.9 633.13 1829.31 652.37"/><polygon points="1804.95 738.88 1757.43 687.83 1741.43 700.4 1788.94 751.45 1804.95 738.88"/><ellipse cx="1822.8" cy="696.59" rx="26.39" ry="4.79" transform="matrix(0.29, -0.96, 0.96, 0.29, 629.57, 2240.62)"/><ellipse cx="1826.18" cy="642.95" rx="3.44" ry="10.13" transform="translate(-107.4 544.99) rotate(-16.5)"/><ellipse cx="1749.54" cy="674.97" rx="26.55" ry="6.73" transform="translate(597.97 2154.95) rotate(-73.21)"/><ellipse cx="1749.61" cy="675.32" rx="16.96" ry="5.03" transform="translate(597.54 2155.16) rotate(-73.2)"/><ellipse cx="1796.6" cy="744.81" rx="10.16" ry="3.43" transform="translate(-57.82 1331.02) rotate(-40.06)"/><ellipse cx="1770.46" cy="694.55" rx="3.19" ry="4.87" transform="translate(604.2 2196.8) rotate(-73.6)"/><ellipse cx="1777.57" cy="671.22" rx="3.19" ry="4.87" transform="translate(631.68 2186.87) rotate(-73.6)"/><ellipse cx="1778.44" cy="671.45" rx="1.31" ry="1.28" transform="translate(526.12 2101.62) rotate(-69.48)"/><ellipse cx="1771.4" cy="694.73" rx="1.31" ry="1.28" transform="translate(499.74 2110.15) rotate(-69.48)"/><path d="M1794.42,675.91a34.78,34.78,0,0,1-7.13,23.66l-5.24-1.56,7.13-23.66Z"/><path d="M1794.27,676.4a46.38,46.38,0,0,1-6.83,22.68l-4.72-1.41,6.83-22.67Z"/><ellipse cx="1779.51" cy="684.63" rx="3.35" ry="2.46" transform="translate(603.87 2185.71) rotate(-72.98)"/><polygon points="1789.67 695.44 1789.38 696.43 1783.09 694.56 1783.38 693.57 1789.67 695.44"/><polygon points="1791.39 691.66 1791.09 692.64 1784.27 690.62 1784.57 689.63 1791.39 691.66"/><polygon points="1792.58 687.71 1792.28 688.7 1785.46 686.67 1785.76 685.69 1792.58 687.71"/><polygon points="1793.76 683.77 1793.47 684.76 1786.65 682.73 1786.95 681.74 1793.76 683.77"/><polygon points="1794.43 679.67 1794.13 680.66 1787.84 678.79 1788.14 677.8 1794.43 679.67"/><polygon points="1793.37 675.6 1786.39 698.76 1785.34 698.45 1792.32 675.28 1793.37 675.6"/><polygon class="cls-22" points="1828.95 671.28 1814.04 720.74 1742.32 699.41 1757.23 649.95 1828.95 671.28"/><polygon class="cls-22" points="1827.71 652.8 1763.59 668.54 1757.36 649.82 1821.47 634.08 1827.71 652.8"/><polygon class="cls-22" points="1804.01 736.94 1757.79 687.29 1742.22 699.52 1788.44 749.17 1804.01 736.94"/><ellipse class="cls-23" cx="1824.66" cy="643.63" rx="3.35" ry="9.85" transform="translate(-107.65 544.58) rotate(-16.5)"/><ellipse class="cls-22" cx="1750.11" cy="674.78" rx="25.83" ry="6.55" transform="translate(598.56 2155.37) rotate(-73.21)"/><ellipse cx="1750.19" cy="675.12" rx="16.5" ry="4.89" transform="translate(598.14 2155.57) rotate(-73.2)"/><ellipse class="cls-23" cx="1749.87" cy="675.37" rx="15.41" ry="4.74" transform="translate(597.67 2155.44) rotate(-73.2)"/><ellipse class="cls-23" cx="1795.89" cy="742.72" rx="9.88" ry="3.34" transform="translate(-56.64 1330.07) rotate(-40.06)"/><ellipse cx="1770.41" cy="693.12" rx="3.1" ry="4.73" transform="translate(605.53 2195.72) rotate(-73.6)"/><ellipse cx="1777.31" cy="670.46" rx="3.1" ry="4.73" transform="translate(632.22 2186.08) rotate(-73.6)"/><ellipse class="cls-13" cx="1778.15" cy="670.69" rx="1.27" ry="1.24" transform="translate(526.65 2100.86) rotate(-69.48)"/><ellipse class="cls-13" cx="1771.32" cy="693.3" rx="1.27" ry="1.24" transform="translate(501.04 2109.14) rotate(-69.48)"/><path d="M1793.67,675a33.77,33.77,0,0,1-6.92,23l-5.09-1.51,6.92-23Z"/><path class="cls-13" d="M1793.53,675.5a44.87,44.87,0,0,1-6.64,22l-4.58-1.36,6.64-22Z"/><ellipse cx="1779.19" cy="683.49" rx="3.25" ry="2.39" transform="translate(604.74 2184.6) rotate(-72.98)"/><polygon points="1789.07 693.99 1788.78 694.94 1782.67 693.13 1782.96 692.17 1789.07 693.99"/><polygon points="1790.73 690.31 1790.44 691.27 1783.82 689.3 1784.11 688.34 1790.73 690.31"/><polygon points="1791.88 686.48 1791.59 687.44 1784.98 685.47 1785.27 684.51 1791.88 686.48"/><polygon points="1793.04 682.65 1792.75 683.61 1786.13 681.64 1786.42 680.68 1793.04 682.65"/><polygon points="1793.68 678.67 1793.39 679.63 1787.28 677.81 1787.57 676.86 1793.68 678.67"/><polygon points="1792.65 674.72 1785.88 697.21 1784.86 696.91 1791.64 674.41 1792.65 674.72"/><ellipse class="cls-13" cx="1779.63" cy="685.26" rx="0.83" ry="0.4" transform="translate(608.25 2190.1) rotate(-73.16)"/><ellipse class="cls-23" cx="1821.77" cy="696.71" rx="25.07" ry="4.55" transform="translate(628.72 2239.72) rotate(-73.22)"/><polygon points="1491.86 819.1 1378.93 831.38 1329.2 878.26 1360.01 935.06 1461.63 975 1523.58 861.86 1491.86 819.1"/><polygon class="cls-15" points="1490.13 822.57 1379.6 834.27 1330.93 878.91 1361.08 932.99 1460.55 971.02 1521.18 863.29 1490.13 822.57"/><polygon points="1493.87 822.6 1386.31 833.99 1338.94 877.42 1368.29 930.03 1465.09 967.04 1524.08 862.22 1493.87 822.6"/><polygon class="cls-15" points="1492.23 825.82 1386.95 836.66 1340.59 878.02 1369.31 928.11 1464.06 963.35 1521.81 863.55 1492.23 825.82"/><polygon points="1361.49 934.5 1368.95 930.28 1367.86 928.37 1360.39 932.59 1361.49 934.5"/><polygon class="cls-15" points="1492.65 832.45 1387.27 843.3 1386.14 832.49 1491.53 821.64 1492.65 832.45"/><polygon class="cls-15" points="1518.19 866.32 1487.35 824.73 1491.6 821.61 1522.45 863.21 1518.19 866.32"/><polygon class="cls-15" points="1388.93 836.15 1341.56 878.41 1338.58 875.12 1385.96 832.86 1388.93 836.15"/><path class="cls-15" d="M1341.05,877.68a2.87,2.87,0,0,0-1-1.53l-.2.26a5,5,0,0,0,1.12.53c.21.07.3-.26.09-.33a5.27,5.27,0,0,0-1.67-.28l0,.33a1.84,1.84,0,0,1,1,0l0-.34H1340l0,.33s0,0,0,0l.06.07a1.14,1.14,0,0,0,.1.19,1.87,1.87,0,0,0,.3.33c.17.16.41.34.4.6l.29-.12a5,5,0,0,1-.61-.77c-.12-.18-.41,0-.3.17l.76,1.29a.17.17,0,0,0,.29-.17l-.75-1.29-.3.17a6,6,0,0,0,.67.84.17.17,0,0,0,.29-.12c0-.38-.28-.62-.52-.86a1.4,1.4,0,0,1-.3-.38c-.1-.18-.24-.35-.47-.3a.17.17,0,0,0,0,.34h.44a.17.17,0,0,0,0-.33,2.1,2.1,0,0,0-1.14,0,.17.17,0,0,0,.05.33,4.73,4.73,0,0,1,1.58.27l.09-.33a4.94,4.94,0,0,1-1-.49c-.16-.1-.36.14-.21.26a2.61,2.61,0,0,1,.88,1.39c0,.21.38.12.33-.09Z"/><polygon points="1340.52 877.17 1339.1 877.99 1336.14 872.89 1337.56 872.08 1340.52 877.17"/><polygon class="cls-15" points="1342.1 876.87 1340.6 877.73 1337.64 872.64 1339.14 871.78 1342.1 876.87"/><path d="M1487.79,903c1.58-3.81.61-9.33-1.37-12.87a14,14,0,0,0-4.24-5,17.45,17.45,0,0,0-3.19-1.42c-.54-.24-1-.57-1.58-.81l-.17,0-.2,0s0,0-.07,0l-.09,0a.27.27,0,0,0-.12,0,2.31,2.31,0,0,1-1-.06,18.79,18.79,0,0,1-2.5-.07L1476,912l.3-.07a7.7,7.7,0,0,1,.83-.05c1-.32,2-.54,3-.9a9,9,0,0,0,2.58-1.46,2.34,2.34,0,0,1,.74-.45,15.3,15.3,0,0,0,4.2-5.45A2.68,2.68,0,0,1,1487.79,903Z"/><polygon class="cls-24" points="1453.14 909.77 1423.86 915.46 1412.51 857.76 1441.79 852.08 1453.14 909.77"/><ellipse class="cls-24" cx="1427.15" cy="854.92" rx="14.91" ry="3.15" transform="translate(-136.72 287.5) rotate(-10.98)"/><path d="M1441.87,852.5c.23,1.19-6.12,3.43-14.2,5s-14.82,1.88-15.05.68a.52.52,0,0,1,.17-.44c1.51.74,7.58.34,14.69-1s13-3.31,14-4.56A.56.56,0,0,1,1441.87,852.5Z"/><polygon class="cls-24" points="1473.42 883.05 1421.32 886.71 1423.97 915.51 1476.08 911.86 1473.42 883.05"/><ellipse class="cls-24" cx="1475.18" cy="897.2" rx="12.51" ry="13.91" transform="translate(-151.73 319.02) rotate(-11.74)"/><ellipse cx="1431.06" cy="874.13" rx="0.65" ry="0.35" transform="translate(-139.78 287.19) rotate(-10.93)"/><ellipse cx="1423.75" cy="872.66" rx="1.2" ry="2.59" transform="translate(-142.1 292.39) rotate(-11.17)"/><ellipse cx="1437.26" cy="870.17" rx="1.2" ry="2.59" transform="translate(-141.36 294.96) rotate(-11.17)"/><ellipse class="cls-13" cx="1437.25" cy="870.08" rx="0.6" ry="1.04" transform="matrix(0.98, -0.19, 0.19, 0.98, -141.67, 295.84)"/><path d="M1434.59,875.93c.19,1-1,2-2.74,2.32s-3.23-.17-3.42-1.12a1.19,1.19,0,0,1,0-.42c.47.7,1.8,1,3.26.75s2.56-1.09,2.73-1.91A.91.91,0,0,1,1434.59,875.93Z"/><ellipse class="cls-13" cx="1423.75" cy="872.56" rx="0.6" ry="1.19" transform="matrix(0.98, -0.19, 0.19, 0.98, -142.18, 292.67)"/><polygon points="1415.04 863.15 1414.57 863.25 1413.66 858.61 1414.13 858.52 1415.04 863.15"/><polygon points="1424.33 915.37 1423.86 915.46 1412.61 858.28 1413.08 858.19 1424.33 915.37"/><polygon points="1416.09 863.49 1415.61 863.58 1414.6 858.43 1415.07 858.34 1416.09 863.49"/><polygon points="1417.13 863.82 1416.66 863.91 1415.65 858.76 1416.12 858.67 1417.13 863.82"/><polygon points="1418.18 864.15 1417.7 864.24 1416.59 858.58 1417.06 858.48 1418.18 864.15"/><polygon points="1419.22 864.48 1418.75 864.57 1417.54 858.39 1418.01 858.3 1419.22 864.48"/><polygon points="1420.3 864.99 1419.83 865.08 1418.48 858.21 1418.95 858.12 1420.3 864.99"/><polygon points="1448.17 884.53 1447.7 884.62 1441.42 852.68 1441.89 852.59 1448.17 884.53"/><path d="M1412.26,857c-.24-1.19,6.12-3.43,14.2-5s14.81-1.88,15-.69a.55.55,0,0,1-.16.45c-1.51-.74-7.59-.34-14.7,1s-13,3.31-14,4.56C1412.41,857.26,1412.28,857.14,1412.26,857Z"/><path d="M1478.35,888.28a11.74,11.74,0,0,0-11.45-1.9,1.71,1.71,0,0,0-.24,2.2c4.33-1.7,8.18-1.24,11.45,1.89C1479.37,889.93,1478.63,888.37,1478.35,888.28Z"/><ellipse cx="1464.11" cy="887.05" rx="1.2" ry="0.79" transform="translate(-141.1 292.27) rotate(-10.88)"/><path class="cls-13" d="M1478,887.68a13.59,13.59,0,0,0-10.17-1.77.92.92,0,0,0-.17,1.45,11.51,11.51,0,0,1,10.17,1.77C1478.9,888.83,1478.22,887.76,1478,887.68Z"/><ellipse class="cls-13" cx="1464.48" cy="886.45" rx="1.2" ry="0.79" transform="translate(-140.98 292.32) rotate(-10.88)"/><path d="M1476.27,912a7.7,7.7,0,0,1,.83-.05l.05,0,0-.42-53.34,3.74,0,.52,51.88-3.64A3.75,3.75,0,0,1,1476.27,912Z"/><path d="M1473.41,882.72l-25.77,1.8,0,.52,26.21-1.83,0-.46Z"/><path d="M1456.7,909.6c1.58-3.81.61-9.33-1.38-12.87a14,14,0,0,0-4.23-5,17.45,17.45,0,0,0-3.19-1.42c-.55-.25-1.06-.57-1.59-.81l-.17,0-.19,0s0,0-.07-.05a.29.29,0,0,1-.1,0,.19.19,0,0,0-.12,0,2.26,2.26,0,0,1-1-.06,19,19,0,0,1-2.51-.07l2.7,29.32a2.84,2.84,0,0,1,.31-.06,7.52,7.52,0,0,1,.82,0c1-.32,2-.55,3-.9a8.91,8.91,0,0,0,2.58-1.46,2.38,2.38,0,0,1,.75-.45,15.27,15.27,0,0,0,4.19-5.45A2.73,2.73,0,0,1,1456.7,909.6Z"/><polygon class="cls-24" points="1422.04 916.36 1392.77 922.05 1381.41 864.35 1410.69 858.67 1422.04 916.36"/><ellipse class="cls-24" cx="1396.05" cy="861.51" rx="14.91" ry="3.15" transform="translate(-138.54 281.69) rotate(-10.98)"/><path d="M1410.77,859.08c.24,1.2-6.12,3.43-14.2,5s-14.81,1.88-15,.68a.55.55,0,0,1,.17-.44c1.51.74,7.58.34,14.69-1.05s13-3.3,14-4.55A.58.58,0,0,1,1410.77,859.08Z"/><polygon class="cls-24" points="1442.33 889.64 1390.22 893.3 1392.87 922.1 1444.98 918.45 1442.33 889.64"/><ellipse class="cls-24" cx="1444.08" cy="903.79" rx="12.51" ry="13.91" transform="translate(-153.72 312.83) rotate(-11.74)"/><ellipse cx="1399.96" cy="880.72" rx="0.65" ry="0.35" transform="translate(-141.59 281.42) rotate(-10.93)"/><ellipse cx="1392.65" cy="879.25" rx="1.2" ry="2.59" transform="translate(-143.97 286.49) rotate(-11.17)"/><ellipse cx="1406.17" cy="876.76" rx="1.2" ry="2.59" transform="translate(-143.23 289.06) rotate(-11.17)"/><ellipse class="cls-13" cx="1406.15" cy="876.67" rx="0.6" ry="1.04" transform="translate(-143.54 289.93) rotate(-11.2)"/><path d="M1403.5,882.52c.18,1-1,2-2.74,2.32s-3.23-.17-3.42-1.12a1,1,0,0,1,0-.42c.47.7,1.8,1,3.26.75s2.57-1.09,2.74-1.91A1,1,0,0,1,1403.5,882.52Z"/><ellipse class="cls-13" cx="1392.66" cy="879.14" rx="0.6" ry="1.19" transform="translate(-144.05 286.76) rotate(-11.18)"/><polygon points="1383.94 869.74 1383.47 869.84 1382.56 865.2 1383.03 865.11 1383.94 869.74"/><polygon points="1393.24 921.95 1392.77 922.05 1381.51 864.87 1381.99 864.77 1393.24 921.95"/><polygon points="1384.99 870.08 1384.52 870.17 1383.5 865.01 1383.98 864.92 1384.99 870.08"/><polygon points="1386.04 870.41 1385.56 870.5 1384.55 865.35 1385.02 865.25 1386.04 870.41"/><polygon points="1387.08 870.74 1386.61 870.83 1385.49 865.16 1385.97 865.07 1387.08 870.74"/><polygon points="1388.13 871.07 1387.65 871.16 1386.44 864.98 1386.91 864.89 1388.13 871.07"/><polygon points="1389.21 871.57 1388.73 871.66 1387.38 864.8 1387.86 864.71 1389.21 871.57"/><polygon points="1417.08 891.12 1416.61 891.21 1410.32 859.27 1410.79 859.18 1417.08 891.12"/><path d="M1381.16,863.58c-.24-1.19,6.12-3.43,14.2-5s14.81-1.87,15.05-.68a.53.53,0,0,1-.17.45c-1.51-.74-7.58-.34-14.69,1s-13,3.31-14,4.56A.57.57,0,0,1,1381.16,863.58Z"/><path d="M1447.26,894.87a11.73,11.73,0,0,0-11.46-1.9,1.73,1.73,0,0,0-.24,2.2c4.33-1.7,8.19-1.24,11.46,1.89C1448.27,896.52,1447.54,895,1447.26,894.87Z"/><ellipse cx="1433.02" cy="893.64" rx="1.2" ry="0.79" transform="translate(-142.91 286.52) rotate(-10.88)"/><path class="cls-13" d="M1446.87,894.27a13.57,13.57,0,0,0-10.17-1.77.92.92,0,0,0-.17,1.45,11.5,11.5,0,0,1,10.18,1.77C1447.8,895.42,1447.12,894.35,1446.87,894.27Z"/><ellipse class="cls-13" cx="1433.39" cy="893.03" rx="1.2" ry="0.79" transform="translate(-142.78 286.57) rotate(-10.88)"/><path d="M1445.18,918.55a7.52,7.52,0,0,1,.82,0l0,0,0-.42-53.34,3.74,0,.52,51.88-3.64A3.29,3.29,0,0,1,1445.18,918.55Z"/><path d="M1442.32,889.3l-25.77,1.81,0,.52,26.22-1.83,0-.46Z"/><polygon points="845.57 830 723.82 843.25 670.2 893.8 703.42 955.03 812.99 998.1 879.77 876.11 845.57 830"/><polygon class="cls-15" points="843.72 833.75 724.54 846.36 672.06 894.49 704.57 952.79 811.82 993.8 877.19 877.65 843.72 833.75"/><polygon points="847.75 833.78 731.78 846.06 680.71 892.88 712.34 949.61 816.71 989.51 880.32 876.5 847.75 833.78"/><polygon class="cls-15" points="845.98 837.25 732.47 848.94 682.48 893.53 713.44 947.54 815.6 985.53 877.87 877.93 845.98 837.25"/><polygon points="705.01 954.43 713.06 949.88 711.88 947.82 703.83 952.37 705.01 954.43"/><polygon class="cls-15" points="846.43 844.4 732.8 856.1 731.59 844.44 845.22 832.75 846.43 844.4"/><polygon class="cls-15" points="873.97 880.92 840.71 836.08 845.3 832.72 878.56 877.56 873.97 880.92"/><polygon class="cls-15" points="734.6 848.39 683.52 893.95 680.31 890.4 731.39 844.84 734.6 848.39"/><path class="cls-15" d="M683,893.16a3.16,3.16,0,0,0-1.05-1.65l-.22.29a5.57,5.57,0,0,0,1.21.57c.23.07.32-.28.1-.36a5.81,5.81,0,0,0-1.8-.3l0,.36a1.89,1.89,0,0,1,1,0l.05-.36h-.49l0,.36s0,0,0,0l.06.09c0,.06.07.13.11.2a2.11,2.11,0,0,0,.32.35c.18.18.44.37.44.65l.31-.13a5.23,5.23,0,0,1-.66-.83c-.13-.19-.44,0-.32.19L683,894a.19.19,0,0,0,.32-.19l-.81-1.39-.32.19a6.18,6.18,0,0,0,.72.9.19.19,0,0,0,.32-.13c0-.4-.3-.67-.57-.93a1.38,1.38,0,0,1-.32-.4c-.11-.2-.26-.38-.51-.33a.18.18,0,0,0,.05.36h.49a.18.18,0,0,0,0-.36,2.3,2.3,0,0,0-1.22,0,.18.18,0,0,0,.05.36,5.19,5.19,0,0,1,1.7.29l.1-.36a5,5,0,0,1-1.12-.53c-.18-.11-.39.15-.23.29a2.79,2.79,0,0,1,1,1.49c.06.23.41.13.36-.1Z"/><polygon points="682.4 892.62 680.87 893.49 677.68 888.01 679.22 887.13 682.4 892.62"/><polygon class="cls-15" points="684.11 892.29 682.49 893.22 679.3 887.73 680.92 886.8 684.11 892.29"/><path d="M824.19,925.55a17.56,17.56,0,0,1-17.44,0v-52.3q8.71-5.54,17.44,0C829.19,890.36,829,907.8,824.19,925.55Z"/><path d="M817.72,898.25a41.95,41.95,0,0,1-83.89,0,41.32,41.32,0,0,1,10.72-27.82,42,42,0,0,0,73.15,26.62C817.71,897.45,817.72,897.85,817.72,898.25Z"/><ellipse cx="795.67" cy="933.15" rx="2.95" ry="5.87" transform="translate(-334.75 457.73) rotate(-26.74)"/><ellipse class="cls-25" cx="795.55" cy="932.79" rx="2.49" ry="5.18" transform="translate(-334.5 457.42) rotate(-26.73)"/><ellipse cx="780.06" cy="939.99" rx="2.95" ry="5.86" transform="translate(-121.89 116.24) rotate(-7.91)"/><ellipse class="cls-25" cx="780.06" cy="939.61" rx="2.49" ry="5.17" transform="translate(-121.78 116.18) rotate(-7.9)"/><ellipse cx="756.67" cy="937.16" rx="5.86" ry="2.95" transform="translate(-332.48 1451.53) rotate(-76.36)"/><ellipse class="cls-25" cx="756.81" cy="936.81" rx="5.17" ry="2.49" transform="translate(-331.97 1451.52) rotate(-76.37)"/><ellipse cx="741.72" cy="924.83" rx="5.87" ry="2.95" transform="translate(-420.05 1160.94) rotate(-62.76)"/><ellipse class="cls-25" cx="741.94" cy="924.51" rx="5.18" ry="2.49" transform="translate(-419.6 1161.2) rotate(-62.77)"/><ellipse cx="805.21" cy="870.29" rx="5.88" ry="2.94" transform="translate(-379.32 921.79) rotate(-49.71)"/><ellipse class="cls-25" cx="805.01" cy="870.61" rx="5.19" ry="2.48" transform="translate(-379.63 922.04) rotate(-49.73)"/><ellipse cx="791.64" cy="860.02" rx="5.87" ry="2.95" transform="translate(-298.89 1280.83) rotate(-68.47)"/><ellipse class="cls-25" cx="791.55" cy="860.39" rx="5.18" ry="2.49" transform="translate(-299.22 1281.16) rotate(-68.48)"/><ellipse cx="768.49" cy="856.27" rx="2.95" ry="5.86"/><ellipse class="cls-25" cx="768.54" cy="856.64" rx="2.49" ry="5.17"/><ellipse cx="750.65" cy="865.28" rx="2.95" ry="5.86" transform="translate(-182.85 201.38) rotate(-13.64)"/><ellipse class="cls-25" cx="750.79" cy="865.63" rx="2.49" ry="5.17" transform="translate(-182.85 201.32) rotate(-13.63)"/><path class="cls-25" d="M823.63,924.71a17,17,0,0,1-16.93,0V873.93q8.46-5.37,16.93,0C828.48,890.54,828.31,907.48,823.63,924.71Z"/><ellipse cx="775.63" cy="898.39" rx="41.95" ry="41.67"/><ellipse class="cls-25" cx="775.66" cy="898.34" rx="40.73" ry="40.46"/><path d="M817.09,897.41a40.74,40.74,0,0,1-81.47,0,40.16,40.16,0,0,1,10.41-27,40.8,40.8,0,0,0,71,25.85C817.08,896.63,817.09,897,817.09,897.41Z"/><path class="cls-13" d="M816.53,898.2a40.74,40.74,0,0,1-81.47,0,40.16,40.16,0,0,1,10.41-27,40.8,40.8,0,0,0,71,25.85C816.53,897.42,816.53,897.81,816.53,898.2Z"/><path d="M796.9,917.64s.14,3.36-10.87,0-4.38-15.25,0-15.25H796.9C799.13,907.78,799.44,912.91,796.9,917.64Z"/><path class="cls-25" d="M796.6,917.39s.13,3.23-10.42,0-4.19-14.6,0-14.6H796.6C798.73,908,799,912.86,796.6,917.39Z"/><ellipse cx="746.44" cy="883.27" rx="6.88" ry="6.84"/><ellipse cx="759.46" cy="883.92" rx="6.88" ry="6.84"/><ellipse class="cls-13" cx="759.41" cy="883.97" rx="6.55" ry="6.51"/><ellipse class="cls-13" cx="746.5" cy="883.16" rx="6.55" ry="6.51"/><ellipse cx="745.11" cy="884.04" rx="1.75" ry="1.74"/><ellipse cx="757.16" cy="884.48" rx="1.75" ry="1.74"/><polygon points="751.53 876.88 743.28 874.89 743.5 873.97 751.75 875.95 751.53 876.88"/><polygon points="753.64 876.17 762.4 874.61 762.58 875.6 753.82 877.15 753.64 876.17"/><ellipse cx="754.17" cy="897.37" rx="10.68" ry="4.19"/><ellipse class="cls-13" cx="754.17" cy="897.37" rx="10.39" ry="3.91"/><rect x="743.77" y="897.37" width="20.79" height="0.28"/><rect x="745.24" y="897.23" width="6.7" height="0.28" transform="translate(1645.95 148.78) rotate(90)"/><rect x="746.75" y="897.23" width="7.81" height="0.28" transform="translate(1648.02 146.71) rotate(90)"/><rect x="749.56" y="897.23" width="7.81" height="0.28" transform="translate(1650.83 143.9) rotate(90)"/><rect x="743.93" y="897.23" width="5.58" height="0.28" transform="translate(1644.09 150.65) rotate(90)"/><rect x="743.08" y="897.23" width="3.91" height="0.28" transform="translate(1642.4 152.33) rotate(90)"/><rect x="756.4" y="897.23" width="6.7" height="0.28" transform="translate(1657.11 137.62) rotate(90)"/><rect x="753.77" y="897.23" width="7.81" height="0.28" transform="translate(1655.04 139.69) rotate(90)"/><rect x="751.8" y="897.23" width="7.81" height="0.28" transform="translate(1653.08 141.66) rotate(90)"/><rect x="758.82" y="897.23" width="5.58" height="0.28" transform="translate(1658.98 135.76) rotate(90)"/><rect x="761.34" y="897.23" width="3.91" height="0.28" transform="translate(1660.66 134.07) rotate(90)"/><polygon points="816.62 882.53 826.06 881.55 825.92 880.18 816.48 881.15 816.62 882.53"/><polygon points="819.14 887.85 826.52 887.09 826.38 885.71 819 886.47 819.14 887.85"/><polygon points="818.65 895.37 827.45 894.47 827.31 893.09 818.5 894 818.65 895.37"/><rect x="819.37" y="901.57" width="8.17" height="1.19"/><rect x="820.59" y="906.81" width="6.39" height="1.19"/><rect x="818.56" y="912.75" width="7.62" height="1.19"/><polygon points="1162.9 580.1 1038.14 593.67 983.2 645.47 1017.24 708.21 1129.51 752.34 1197.95 627.35 1162.9 580.1"/><polygon class="cls-15" points="1161 583.93 1038.88 596.86 985.11 646.18 1018.42 705.92 1128.32 747.94 1195.3 628.92 1161 583.93"/><polygon points="1165.13 583.97 1046.3 596.55 993.97 644.53 1026.38 702.66 1133.33 743.54 1198.51 627.74 1165.13 583.97"/><polygon class="cls-15" points="1163.32 587.53 1047 599.5 995.78 645.19 1027.51 700.54 1132.19 739.47 1195.99 629.21 1163.32 587.53"/><polygon points="1018.87 707.6 1027.12 702.93 1025.91 700.82 1017.66 705.48 1018.87 707.6"/><polygon class="cls-15" points="1163.78 594.85 1047.35 606.83 1046.1 594.89 1162.54 582.91 1163.78 594.85"/><polygon class="cls-15" points="1192 632.27 1157.92 586.32 1162.62 582.88 1196.7 628.83 1192 632.27"/><polygon class="cls-15" points="1049.19 598.94 996.85 645.63 993.56 641.99 1045.9 595.3 1049.19 598.94"/><path class="cls-15" d="M996.28,644.82a3.19,3.19,0,0,0-1.06-1.69l-.22.28a5.64,5.64,0,0,0,1.24.59c.22.07.31-.28.09-.35a5.47,5.47,0,0,0-1.84-.31l0,.35a2,2,0,0,1,1.06,0l0-.35h-.49l.05.36s0,0,0,0,0,0,.06.08l.11.21a2.24,2.24,0,0,0,.33.36c.19.18.45.38.45.67l.31-.13a4.61,4.61,0,0,1-.68-.85c-.13-.19-.44,0-.32.19l.83,1.42a.19.19,0,0,0,.32-.19l-.83-1.42-.32.19a6.4,6.4,0,0,0,.74.91.18.18,0,0,0,.31-.12c0-.41-.31-.68-.58-.94a1.91,1.91,0,0,1-.33-.42c-.11-.2-.26-.39-.51-.33s-.15.35,0,.35h.49c.2,0,.26-.32.05-.35a2.31,2.31,0,0,0-1.25,0,.18.18,0,0,0,0,.36,5.24,5.24,0,0,1,1.75.3l.09-.35a5.52,5.52,0,0,1-1.15-.55c-.17-.11-.38.15-.22.28a2.91,2.91,0,0,1,1,1.53.18.18,0,0,0,.35-.09Z"/><polygon points="995.71 644.26 994.13 645.16 990.87 639.53 992.44 638.63 995.71 644.26"/><polygon class="cls-15" points="997.45 643.92 995.8 644.87 992.53 639.25 994.18 638.3 997.45 643.92"/><path d="M1152.6,682.77h-130c-7.68-19.69-7.88-40.77,0-63.31h130Z"/><path class="cls-26" d="M1146.9,680.68H1024.24c-7.16-19.94-7.23-39.8,0-59.56H1146.9Z"/><ellipse cx="1153.02" cy="651.11" rx="17.61" ry="31.65"/><ellipse class="cls-26" cx="1153.11" cy="651.11" rx="16.68" ry="29.99"/><rect x="1049.87" y="627.37" width="91.41" height="1.25"/><rect x="1049.87" y="651.95" width="85.54" height="1.25"/><rect x="1062.03" y="637.78" width="75.48" height="1.25"/><rect x="1061.61" y="664.02" width="75.89" height="1.25"/><rect x="1074.61" y="674.02" width="66.67" height="1.25"/><path d="M1159.32,660.28c-.93,4.61-3.4,7.91-6.3,7.91-2.44,0-4.58-2.35-5.75-5.86,1.4,2.64,3.38,4.28,5.57,4.28C1155.56,666.61,1158,664.09,1159.32,660.28Z"/><path d="M1147.39,641.42c1.29-4.54,4-7.64,6.88-7.42,2.44.18,4.4,2.68,5.3,6.28-1.2-2.74-3-4.53-5.24-4.69C1151.63,635.38,1149.05,637.72,1147.39,641.42Z"/><ellipse cx="1031" cy="645.28" rx="3.35" ry="9.16"/><ellipse cx="1042.74" cy="645.28" rx="3.35" ry="9.16"/><ellipse class="cls-13" cx="1029.75" cy="648.2" rx="1.68" ry="4.58"/><ellipse class="cls-13" cx="1041.49" cy="648.2" rx="1.68" ry="4.58"/><path d="M1027,632.94a5.69,5.69,0,0,0,3.8,1.3,5.76,5.76,0,0,0,3.67-1.6,4.2,4.2,0,0,1-7.47.3Z"/><path d="M1038.79,632.74a5.54,5.54,0,0,0,7.47-.3,4.2,4.2,0,0,1-7.47.3Z"/><path d="M1050.27,666.51c-3.56-3.45-7.71-5.36-12.08-5.18s-8.35,2.42-11.61,6.14c2.93-5.67,6.94-9.2,11.48-9.39S1046.88,661.09,1050.27,666.51Z"/><circle cx="1832.51" cy="67.16" r="60"/><circle class="cls-13" cx="1832.51" cy="67.16" r="55.83"/><rect class="cls-27" x="1831.93" y="15.98" width="2.44" height="7.18"/><rect class="cls-27" x="1808.06" y="22.04" width="2.44" height="7.18" transform="translate(229.59 908.09) rotate(-30)"/><rect class="cls-27" x="1790.51" y="39.17" width="2.44" height="7.18" transform="translate(861.83 1574.88) rotate(-60.11)"/><rect class="cls-27" x="1781.33" y="65.3" width="7.18" height="2.44"/><rect class="cls-27" x="1787.4" y="89.22" width="7.18" height="2.44" transform="translate(194.74 907.63) rotate(-30)"/><rect class="cls-27" x="1804.57" y="106.86" width="7.18" height="2.44" transform="translate(810.46 1619.94) rotate(-60)"/><rect class="cls-27" x="1830.69" y="111.21" width="2.44" height="7.18"/><rect class="cls-27" x="1854.58" y="105.13" width="2.44" height="7.18" transform="translate(194.28 942.48) rotate(-30)"/><rect class="cls-27" x="1872.23" y="87.96" width="2.44" height="7.18" transform="translate(857.42 1668.21) rotate(-60)"/><rect class="cls-27" x="1876.56" y="66.59" width="7.18" height="2.44"/><rect class="cls-27" x="1870.49" y="42.7" width="7.18" height="2.44" transform="translate(229.13 942.94) rotate(-30)"/><rect class="cls-27" x="1853.62" y="25.12" width="7.18" height="2.44" transform="translate(908.92 1623.42) rotate(-60.11)"/></svg>